<?xml version="1.0" encoding="UTF-8"?>
<svg id="Layer_1" data-name="Layer 1" xmlns="http://www.w3.org/2000/svg" viewBox="0 0 500 500">
  <defs>
    <style>
      .cls-1 {
        fill: #d3222a;
      }

      .cls-2 {
        fill: #fff;
      }
    </style>
  </defs>
  <rect class="cls-2" width="500" height="500"/>
  <path class="cls-1" d="M447.333,329.054c23.739-27.795,28.713-67.031,12.66-99.87-16.9-37.36-53.15-67.53-59.35-97.84-3-14.71,15.67-15.42,23-6.42,6.66,8.2,10.68,16.61,25.47,19,12.9,2.08,24.41-7.69,32.21-10.61-1.91-1.06-33.69-15.63-60.24-26.51-71.38-28.89-29.89,57.72-25.32,71.33l-.41-.18c-37.81-16.7-65.69-38.58-92.76-59.86-21.11-16.58-41.37-32.51-65.07-45.14l-.32-.13c-31.34-17.83-49.91-21-66.64-21.31-29.57-.66-56.5,17.54-63.17,43.1,3.27.43,18.17.5,34.13-.11,0,0-4.53,12.94-23.92,12.79-24-.24-34.88.25-39.91.53-36.44,2.12-23.95,50-23.95,50-14.5,3-16.73-22.42-15.89-30.35-8,3.74-42.23,58.52,6.35,67.88-4.07,37.39.75,73.77,14.63,82.6.355.297.849.363,1.27.17,13.13-3.14,16.09,51,14,59.89,4,.07,11.53-2.09,15-5.52,7.115,4.307,9.392,13.567,5.085,20.682-1.437,2.373-3.501,4.303-5.965,5.578h.05c27.1,9.31,49.89-16.28,46.41-34.23,5.172,1.072,8.881,5.628,8.88,10.91-.009,1.793-.434,3.559-1.24,5.16,8.4-2.72,18.83-11,25.27-26.57,0,30-31.51,49.43-44,63.05-2.52,5.85,4.62,22.52,6.76,26.72,4.21,3.73,6.27,0,33.66,9.18,4.52,1.49,19.38,8.32,19.38,11.24-2.7,2.1-4.71,4.37-6.09,5-1.31,6-4.53,19.26-4.53,19.26h58.22c-.334-4.323-.116-8.672.65-12.94,1.172-4.972,3.459-9.613,6.69-13.57,3.5-1.56,17.17.82,18.78,1.28-.922-4.577-1.566-9.205-1.93-13.86,4.996,1.285,10.158,1.808,15.31,1.55-5.84-13.45-.23-68.07,46.18-40.82-9.95,32.17-24.45,55.94-37.27,58.47-.963.223-1.954.304-2.94.24-2.59,5.68-4.85,13.55-7.56,19.65h52.21c-.45-14.25,11.67-34.79,33.25-53.38,7.715-6.631,16.035-12.523,24.85-17.6-5.21-7.54-8.15-14.29-7.17-16.62.238,0,.476.024.71.07,1.71.08,3.37.13,5.05.13,9.012.058,17.982-1.22,26.62-3.79,6.22,14.53,15.61,30.08,13.41,47.4-1.22,9.88-5,17.9-17.87,24.17-2.92,5.77-4.9,13.55-7.61,19.65h50c-2.49-27.26,9.86-53.86,18.39-68.67-6.38-14.53-15.07-32.95-13.48-50.65l.07-.13ZM138.413,275.794c-.342-.001-.681-.065-1-.19-17.21-7.09-9.43,10.92-27.55,10.92h-.8c-18.12,0-10.34-18-27.54-10.92h-.06c-.293.114-.606.169-.92.16-1.406-.011-2.54-1.154-2.54-2.56-.008-.453.11-.9.34-1.29.719-.995,1.745-1.725,2.92-2.08,1.78-.78,8.51-4.77,28.21-4.77s26.39,4,28.19,4.77c1.147.34,2.154,1.041,2.87,2l.05.06c.274.411.417.896.41,1.39.006,1.408-1.132,2.554-2.54,2.56h0M165.393,229.154c-4.59,11-18.49,8-19.43,3.73-2-9,6-9.18,15.58-20.73,6.61-7.94,6.27,11.21,3.85,17M171.763,167.984c7.44-11.24,22.8-5.69,22.2-40.48,27.94,34.79,11.42,53,2.87,59.29-17.4,12.75-36.44-1.69-25.07-18.81M228.763,381.414c-2.48,8.13-6.57,17.69-14.46,22.92-.43-7.18-2.24-18-3-25.53-6.43,1.59-29.14,3.77-38-2.76,22.6-5.22,48.52-32.83,53.95-39.79,6.3,9.93,5.28,33.14,1.53,45.16M411.473,276.914c-.76.89-1.58,1.78-2.41,2.59,0,0,.07,0,.12-.27,2.51-45-69.19-37.29-122.5-26.27,52.11-38.29,8.95-78.82,8.95-84.53,3.66,2.45,13.64,6.71,20.95,6.37-8.34-12.56-14.32-28.9-15.89-33.32l-.49-2c3.333,2.573,6.667,5.177,10,7.81,23.26,18.26,46.19,37.08,82.34,50.79,21.18,8,31.1,25.36,31.1,45.82.006,12.101-4.314,23.805-12.18,33"/>
</svg>